<svg width="153" height="163" viewBox="0 0 153 163" fill="none" xmlns="http://www.w3.org/2000/svg">
<path d="M120.196 90.5632C128.611 89.9642 136.213 91.7646 140.436 94.0468C138.319 98.9083 136.703 103.515 135.232 107.792C135.112 108.14 134.993 108.486 134.875 108.829C133.538 112.722 132.299 116.329 130.878 119.596C127.786 126.704 123.835 132.197 116.148 135.501C101.052 140.724 80.7732 146.424 66.0925 146C70.5685 139.389 73.9389 133.239 77.1104 127.451C78.1104 125.626 79.0906 123.837 80.0796 122.081C84.2171 114.735 88.5074 107.964 95.0351 101.536C102.506 94.1783 111.757 91.164 120.196 90.5632Z" fill="white" stroke="#DDDDDD" stroke-width="0.1"/>
<rect x="15.05" y="148.05" width="18.9" height="6.9" rx="3.45" fill="white" stroke="#DDDDDD" stroke-width="0.1"/>
<rect x="54.05" y="148.05" width="18.9" height="6.9" rx="3.45" fill="white" stroke="#DDDDDD" stroke-width="0.1"/>
<path d="M81.95 121.196C81.95 128.915 80.7398 134.631 78.6465 138.864C76.5537 143.095 73.5771 145.847 70.0388 147.637C66.4993 149.426 62.396 150.254 58.0497 150.634C54.2782 150.963 50.3269 150.955 46.4047 150.948C45.8068 150.946 45.2095 150.945 44.6136 150.945C44.0128 150.945 43.4158 150.946 42.8232 150.948C38.9725 150.955 35.3025 150.963 31.9238 150.634C28.0255 150.254 24.5201 149.427 21.5783 147.638C15.6993 144.064 12.05 136.638 12.05 121.196C12.05 105.755 15.6991 97.4757 21.5824 93.0525C27.4692 88.6266 35.6061 88.05 44.6136 88.05C53.6203 88.05 62.9532 88.6262 70.0348 93.0549C77.1108 97.4802 81.95 105.76 81.95 121.196Z" fill="white" stroke="#DDDDDD" stroke-width="0.1"/>
<path d="M11.1883 111.056L11.1899 111.056L11.1826 111.067C7.1173 116.956 5.50149 121.628 5.41091 125.012C5.32038 128.395 6.75224 130.484 8.78103 131.23C9.79208 131.602 11.0413 131.48 12.4104 130.92C13.779 130.361 15.2624 129.366 16.7374 128.002C19.6872 125.274 22.5978 121.075 24.4843 115.947C26.3732 110.812 27.7084 106.033 27.6448 102.199C27.6129 100.283 27.2317 98.6055 26.3983 97.2382C25.5654 95.8717 24.2786 94.8108 22.4283 94.1302C20.5776 93.4494 19.1941 93.528 18.0978 94.1768C16.9985 94.8274 16.1774 96.0572 15.4667 97.703C14.7562 99.3479 14.1595 101.4 13.5036 103.685C13.4807 103.765 13.4577 103.845 13.4346 103.925C12.7977 106.146 12.1006 108.576 11.1883 111.056Z" fill="white" stroke="#DDDDDD" stroke-width="0.1"/>
<path d="M58.6869 111.933L58.6884 111.934L58.6808 111.944C54.4539 117.718 52.7092 122.344 52.5248 125.724C52.3406 129.103 53.714 131.231 55.7213 132.033C56.7217 132.433 57.9738 132.345 59.3579 131.824C60.7415 131.302 62.2518 130.349 63.7641 129.027C66.7884 126.382 69.8142 122.265 71.8422 117.191C73.8726 112.11 75.3398 107.37 75.3824 103.536C75.4037 101.619 75.0691 99.9323 74.274 98.5424C73.4793 97.1534 72.2224 96.0572 70.3917 95.3256C68.5605 94.5938 67.1754 94.634 66.0615 95.2521C64.9446 95.872 64.0897 97.0786 63.3336 98.704C62.5779 100.329 61.9245 102.363 61.2055 104.63C61.1804 104.709 61.1552 104.788 61.1299 104.868C60.4318 107.069 59.6675 109.479 58.6869 111.933Z" fill="white" stroke="#DDDDDD" stroke-width="0.1"/>
<path d="M58 104.097C58 106.285 60.4724 106.871 61.5667 106.871C62.6611 106.871 71.4744 97.9629 71.4744 95.7741C71.4744 93.5854 68.6057 93 67.5113 93C66.4169 93 58 101.908 58 104.097Z" fill="white"/>
<path d="M32.2384 103.06C32.2384 105.248 29.766 105.834 28.6716 105.834C27.5772 105.834 18.764 96.9259 18.764 94.7372C18.764 92.5485 21.6327 91.9631 22.727 91.9631C23.8214 91.9631 32.2384 100.871 32.2384 103.06Z" fill="white"/>
<path d="M87.9479 62.3166C92.891 89.8299 67.367 99.9882 46.3635 99.9882C25.36 99.9882 -3.00263 88.0732 3.00195 62.3166C8.17284 40.1361 18.6866 23.5888 46.3635 23.5888C74.6216 23.5888 84.2159 41.5444 87.9479 62.3166Z" fill="#F2B57C"/>
<path d="M17.2994 6.91486C17.816 5.89965 19.0977 5.54203 20.0795 6.12979C32.9893 13.8585 33.7995 16.0556 38.3389 25.7867C38.7616 26.6929 38.4577 27.7765 37.6194 28.3176L12.5665 44.4872C11.2967 45.3068 9.60562 44.4693 9.51307 42.9601C8.6828 29.42 10.2736 20.7235 17.2994 6.91486Z" fill="#F2B57C"/>
<path d="M18.9995 12.287C19.5008 11.2224 20.8276 10.848 21.8244 11.4835C30.2961 16.8849 31.0614 18.6267 34.1321 25.356C34.5401 26.2501 34.2426 27.3069 33.4264 27.8505L17.11 38.7176C15.8476 39.5584 14.1392 38.7381 14.047 37.2233C13.4833 27.9632 14.5523 21.731 18.9995 12.287Z" fill="white"/>
<path d="M81.0518 7.70408C82.0625 7.39333 83.1468 7.91805 83.4714 8.91508C86.9461 19.5879 86.4281 32.5629 81.8903 43.0893C81.3946 44.2392 79.9427 44.5769 78.9404 43.8222L56.1099 26.6307C55.1216 25.8865 55.0548 24.4318 55.9516 23.5767C65.6963 14.2845 65.806 12.3916 81.0518 7.70408Z" fill="#F2B57C"/>
<path d="M76.0662 15.0987C77.142 14.6896 78.3439 15.2736 78.5936 16.3874C80.1201 23.1984 79.2719 31.4145 76.1953 38.3869C75.6961 39.5181 74.2627 39.8343 73.2742 39.0877L60.2702 29.2666C59.2973 28.5319 59.215 27.107 60.0787 26.2443C66.2878 20.043 66.8002 18.6224 76.0662 15.0987Z" fill="white"/>
<ellipse cx="33.7574" cy="59.5" rx="1.77671" ry="1.76036" fill="black"/>
<ellipse cx="58.6314" cy="59.5" rx="1.77671" ry="1.76036" fill="black"/>
<path d="M87.4219 64.6023C87.7958 64.5585 88.1356 64.5187 88.4378 64.4842C89.4873 71.5062 87.8426 80.5101 81.5479 87.6877C75.2399 94.8803 64.2564 100.246 46.6162 99.9374C10.0585 99.2984 -0.732455 77.2031 2.52341 65.1911C6.12768 65.8819 16.0389 66.7919 25.6927 66.1575C30.5402 65.839 35.3258 65.1309 39.2165 63.8087C43.0574 62.5034 46.0366 60.5961 47.3341 57.8637C48.5365 60.6952 51.2354 62.5758 54.7123 63.7926C58.2326 65.0245 62.5584 65.579 66.9597 65.7488C74.9957 66.0586 83.2943 65.0861 87.4219 64.6023Z" fill="white" stroke="#DDDDDD" stroke-width="0.1"/>
<path d="M62.5401 66.5201C62.5401 68.9447 49.8372 66.5201 46.5009 66.5201C43.1647 66.5201 31.2701 68.9447 31.2701 66.5201C31.2701 64.0954 43.1647 57.7397 46.5009 57.7397C49.8372 57.7397 62.5401 64.0954 62.5401 66.5201Z" fill="white"/>
<path d="M43.0966 74.5857C44.773 73.2308 45.8673 73.2308 46.5497 73.2308C47.2321 73.2308 47.9711 73.2308 49.4928 74.5857C49.4928 77.0104 47.0598 83.3661 46.3774 83.3661C45.695 83.3661 43.0966 77.0104 43.0966 74.5857Z" fill="#FF9A89"/>
<ellipse cx="46.5498" cy="64.429" rx="1.77671" ry="1.76036" fill="black"/>
<line x1="46.6944" y1="65.4853" x2="46.6944" y2="73.2308" stroke="black"/>
<path d="M55.3881 73.0446C55.6047 72.8717 55.6414 72.5571 55.4701 72.3417C55.2988 72.1263 54.9844 72.0919 54.7678 72.2647L55.3881 73.0446ZM54.7678 72.2647C52.476 74.0931 49.1683 74.1186 46.4898 72.2443L45.9125 73.0649C48.9059 75.1596 52.705 75.1851 55.3881 73.0446L54.7678 72.2647Z" fill="black"/>
<path d="M46.8714 72.9634C47.088 72.7906 47.1247 72.4759 46.9534 72.2606C46.7821 72.0452 46.4676 72.0108 46.251 72.1836L46.8714 72.9634ZM46.251 72.1836C43.9593 74.012 40.6516 74.0375 37.9731 72.1632L37.3957 72.9838C40.3892 75.0785 44.1883 75.104 46.8714 72.9634L46.251 72.1836Z" fill="black"/>
<ellipse opacity="0.5" cx="65.0275" cy="69.006" rx="4.61944" ry="1.40829" fill="#F2B57C"/>
<ellipse opacity="0.5" cx="27.3613" cy="69.006" rx="4.61944" ry="1.40829" fill="#F2B57C"/>
<path d="M140.5 94.0247C132 113.525 136 116 125.5 130C117 122.5 115.5 119.5 107.5 112.5C103.5 109 87 101.074 105.5 94.0247C120 88.4999 132.051 89.4288 140.5 94.0247Z" fill="#F2B57C"/>
</svg>
