<svg width="500" height="500" viewBox="0 0 500 500" fill="none" xmlns="http://www.w3.org/2000/svg">
<rect width="500" height="500" fill="white"/>
<path d="M97.9766 342.719V371H92.8984L80.4766 353.031H80.2422V371H74.3828V342.719H79.5391L91.8828 360.688H92.1562V342.719H97.9766ZM112.156 371.43C105.75 371.43 101.766 367.016 101.766 360.453C101.766 353.891 105.75 349.516 112.156 349.516C118.562 349.516 122.586 353.891 122.586 360.453C122.586 367.016 118.562 371.43 112.156 371.43ZM112.195 366.938C115.164 366.938 116.688 364.164 116.688 360.453C116.688 356.703 115.164 353.93 112.195 353.93C109.188 353.93 107.625 356.703 107.625 360.453C107.625 364.164 109.188 366.938 112.195 366.938ZM141.414 342.719V371H135.555V342.719H141.414ZM146.062 371V349.789H151.57V353.5H151.805C152.703 351.039 154.852 349.516 157.703 349.516C160.633 349.516 162.781 351.039 163.484 353.5H163.68C164.578 351.078 166.961 349.516 170.086 349.516C174.031 349.516 176.766 352.133 176.766 356.742V371H170.984V357.875C170.984 355.453 169.578 354.281 167.664 354.281C165.477 354.281 164.227 355.805 164.227 358.031V371H158.602V357.719C158.602 355.609 157.273 354.281 155.32 354.281C153.367 354.281 151.844 355.844 151.844 358.266V371H146.062ZM180.203 365.062C180.203 360.336 184.031 358.773 188.094 358.539C189.617 358.441 192.469 358.305 193.367 358.266V356.547C193.328 354.789 192.117 353.734 189.969 353.734C188.016 353.734 186.766 354.633 186.453 356.078H180.945C181.297 352.406 184.5 349.516 190.125 349.516C194.734 349.516 199.109 351.586 199.109 356.703V371H193.641V368.07H193.484C192.43 370.023 190.438 371.391 187.273 371.391C183.211 371.391 180.203 369.281 180.203 365.062ZM185.75 364.906C185.75 366.547 187.078 367.406 188.914 367.406C191.531 367.406 193.406 365.648 193.367 363.422V361.859C192.488 361.898 190.027 362.035 189.031 362.133C187.039 362.328 185.75 363.266 185.75 364.906ZM213.055 379.398C207.195 379.398 203.602 376.781 203.25 372.758H208.953C209.266 374.438 210.867 375.219 213.172 375.219C215.867 375.219 217.664 374.086 217.664 371.117V367.25H217.391C216.609 368.969 214.734 370.688 211.336 370.688C206.531 370.688 202.703 367.328 202.703 360.258C202.703 353.07 206.648 349.516 211.336 349.516C214.891 349.516 216.609 351.625 217.391 353.344H217.625V349.789H223.367V371.234C223.367 376.625 219.07 379.398 213.055 379.398ZM213.133 366.352C216.023 366.352 217.664 364.086 217.664 360.336C217.664 356.547 216.023 354.125 213.133 354.125C210.203 354.125 208.641 356.664 208.641 360.336C208.641 364.008 210.203 366.352 213.133 366.352ZM237.469 371.43C230.984 371.43 227 367.211 227 360.492C227 353.93 231.023 349.516 237.234 349.516C242.82 349.516 247.195 353.031 247.195 360.258V361.898H232.703C232.703 365.102 234.617 367.094 237.586 367.094C239.539 367.094 240.945 366.234 241.531 364.945H247.039C246.219 368.852 242.703 371.43 237.469 371.43ZM232.703 358.266H241.727C241.727 355.688 239.93 353.852 237.352 353.852C234.695 353.852 232.801 355.824 232.703 358.266ZM264.891 371H258.562L268.367 342.719H275.906L285.672 371H279.383L277.273 364.477H267.039L264.891 371ZM268.523 359.906H275.789L272.234 349.086H272.039L268.523 359.906ZM305.789 349.789L298.328 371H291.844L284.422 349.789H290.516L294.969 365.023H295.203L299.656 349.789H305.789ZM307 365.062C307 360.336 310.828 358.773 314.891 358.539C316.414 358.441 319.266 358.305 320.164 358.266V356.547C320.125 354.789 318.914 353.734 316.766 353.734C314.812 353.734 313.562 354.633 313.25 356.078H307.742C308.094 352.406 311.297 349.516 316.922 349.516C321.531 349.516 325.906 351.586 325.906 356.703V371H320.438V368.07H320.281C319.227 370.023 317.234 371.391 314.07 371.391C310.008 371.391 307 369.281 307 365.062ZM312.547 364.906C312.547 366.547 313.875 367.406 315.711 367.406C318.328 367.406 320.203 365.648 320.164 363.422V361.859C319.285 361.898 316.824 362.035 315.828 362.133C313.836 362.328 312.547 363.266 312.547 364.906ZM330.32 371V349.789H336.102V371H330.32ZM333.211 347.016C331.453 347.016 330.047 345.688 330.047 344.086C330.047 342.445 331.453 341.117 333.211 341.117C334.93 341.117 336.336 342.445 336.336 344.086C336.336 345.688 334.93 347.016 333.211 347.016ZM346.375 342.719V371H340.594V342.719H346.375ZM349.852 365.062C349.852 360.336 353.68 358.773 357.742 358.539C359.266 358.441 362.117 358.305 363.016 358.266V356.547C362.977 354.789 361.766 353.734 359.617 353.734C357.664 353.734 356.414 354.633 356.102 356.078H350.594C350.945 352.406 354.148 349.516 359.773 349.516C364.383 349.516 368.758 351.586 368.758 356.703V371H363.289V368.07H363.133C362.078 370.023 360.086 371.391 356.922 371.391C352.859 371.391 349.852 369.281 349.852 365.062ZM355.398 364.906C355.398 366.547 356.727 367.406 358.562 367.406C361.18 367.406 363.055 365.648 363.016 363.422V361.859C362.137 361.898 359.676 362.035 358.68 362.133C356.688 362.328 355.398 363.266 355.398 364.906ZM373.289 371V342.719H379.07V353.344H379.227C380.047 351.625 381.727 349.516 385.281 349.516C389.969 349.516 393.914 353.148 393.914 360.414C393.914 367.484 390.125 371.352 385.281 371.352C381.805 371.352 380.047 369.359 379.227 367.602H378.992V371H373.289ZM378.953 360.375C378.953 364.203 380.594 366.742 383.445 366.742C386.414 366.742 387.977 364.125 387.977 360.375C387.977 356.664 386.414 354.125 383.445 354.125C380.555 354.125 378.953 356.547 378.953 360.375ZM403.406 342.719V371H397.625V342.719H403.406ZM417.508 371.43C411.023 371.43 407.039 367.211 407.039 360.492C407.039 353.93 411.062 349.516 417.273 349.516C422.859 349.516 427.234 353.031 427.234 360.258V361.898H412.742C412.742 365.102 414.656 367.094 417.625 367.094C419.578 367.094 420.984 366.234 421.57 364.945H427.078C426.258 368.852 422.742 371.43 417.508 371.43ZM412.742 358.266H421.766C421.766 355.688 419.969 353.852 417.391 353.852C414.734 353.852 412.84 355.824 412.742 358.266Z" fill="#777777"/>
<g clip-path="url(#clip0_1368_3791)">
<path d="M308.333 118H191.667C180.62 118.013 170.03 122.407 162.218 130.218C154.407 138.03 150.013 148.62 150 159.667V276.333C150.013 287.38 154.407 297.97 162.218 305.782C170.03 313.593 180.62 317.987 191.667 318H308.333C319.38 317.987 329.97 313.593 337.782 305.782C345.593 297.97 349.987 287.38 350 276.333V159.667C349.987 148.62 345.593 138.03 337.782 130.218C329.97 122.407 319.38 118.013 308.333 118ZM191.667 134.667H308.333C314.964 134.667 321.323 137.301 326.011 141.989C330.699 146.677 333.333 153.036 333.333 159.667V276.333C333.319 280.046 332.464 283.707 330.833 287.042L254.475 210.683C250.606 206.813 246.012 203.743 240.956 201.648C235.9 199.554 230.481 198.476 225.008 198.476C219.536 198.476 214.117 199.554 209.061 201.648C204.005 203.743 199.411 206.813 195.542 210.683L166.667 239.55V159.667C166.667 153.036 169.301 146.677 173.989 141.989C178.677 137.301 185.036 134.667 191.667 134.667ZM191.667 301.333C185.036 301.333 178.677 298.699 173.989 294.011C169.301 289.323 166.667 282.964 166.667 276.333V263.117L207.317 222.467C209.638 220.144 212.395 218.301 215.429 217.043C218.463 215.786 221.716 215.139 225 215.139C228.284 215.139 231.537 215.786 234.571 217.043C237.605 218.301 240.362 220.144 242.683 222.467L319.042 298.833C315.707 300.464 312.046 301.319 308.333 301.333H191.667Z" fill="#777777"/>
<path d="M283.333 205.5C289.102 205.5 294.741 203.789 299.537 200.585C304.334 197.38 308.072 192.824 310.28 187.495C312.487 182.165 313.065 176.301 311.94 170.643C310.814 164.985 308.036 159.788 303.957 155.709C299.878 151.63 294.681 148.852 289.023 147.727C283.366 146.602 277.501 147.179 272.172 149.387C266.842 151.594 262.287 155.333 259.082 160.129C255.877 164.926 254.167 170.565 254.167 176.333C254.167 184.069 257.24 191.487 262.709 196.957C268.179 202.427 275.598 205.5 283.333 205.5ZM283.333 163.833C285.806 163.833 288.222 164.566 290.278 165.94C292.334 167.313 293.936 169.266 294.882 171.55C295.828 173.834 296.075 176.347 295.593 178.772C295.111 181.197 293.92 183.424 292.172 185.172C290.424 186.92 288.197 188.111 285.772 188.593C283.347 189.075 280.834 188.828 278.55 187.882C276.266 186.936 274.313 185.334 272.94 183.278C271.566 181.222 270.833 178.806 270.833 176.333C270.833 173.018 272.15 169.839 274.494 167.494C276.839 165.15 280.018 163.833 283.333 163.833Z" fill="#777777"/>
</g>
<defs>
<clipPath id="clip0_1368_3791">
<rect width="200" height="200" fill="white" transform="translate(150 118)"/>
</clipPath>
</defs>
</svg>
