<svg width="500" height="500" viewBox="0 0 500 500" fill="none" xmlns="http://www.w3.org/2000/svg">
<rect width="500" height="500" fill="white"/>
<path d="M75.8203 339.047V374.672H70.7812V339.047H75.8203ZM56.5234 341.547C61.875 341.547 65.8594 346.469 65.8594 354.203C65.8594 362.016 61.875 366.898 56.5234 366.898C51.0547 366.898 47.0703 362.016 47.1094 354.203C47.0703 346.469 51.0547 341.547 56.5234 341.547ZM56.5234 346.039C53.75 346.039 51.9141 348.93 51.9141 354.203C51.9141 359.516 53.75 362.367 56.5234 362.367C59.2188 362.367 61.0547 359.516 61.0547 354.203C61.0547 348.93 59.2188 346.039 56.5234 346.039ZM99.5703 342.25V366.117H82.3828V342.25H99.5703ZM87.3828 346.156V362.172H94.7266V346.156H87.3828ZM110.391 339.047V374.672H105.352V339.047H110.391ZM128.984 348.734C128.984 354.477 131.914 360.609 137.891 363.109L135.195 367.016C130.996 365.238 128.105 361.703 126.523 357.367C124.902 362.074 121.953 365.98 117.773 367.914L114.922 363.969C120.82 361.352 123.867 354.75 123.867 348.734V346.547H116.328V342.484H136.406V346.547H128.984V348.734ZM144.961 339.047V374.594H139.922V339.047H144.961ZM182.266 354.984V358.695H149.727V354.984H182.266ZM178.359 360.453V368.852H158.438V370.883H179.414V374.281H153.477V365.688H173.438V363.891H153.438V360.453H178.359ZM178.32 339.672V348.031H158.75V349.945H178.945V353.305H153.789V344.867H173.32V343.07H153.711V339.672H178.32ZM203.477 340.57C208.027 340.531 211.641 343.129 212.617 346.938H218.555V339.047H223.516V358.148H218.555V350.922H212.656C211.719 354.828 208.066 357.484 203.477 357.484C198.008 357.484 193.984 353.93 194.023 348.969C193.984 344.086 198.008 340.531 203.477 340.57ZM203.477 344.711C200.703 344.672 198.711 346.312 198.75 348.969C198.711 351.625 200.703 353.305 203.477 353.305C206.172 353.305 208.125 351.625 208.125 348.969C208.125 346.312 206.172 344.672 203.477 344.711ZM204.727 359.711V363.148H218.555V359.711H223.516V374.203H199.805V359.711H204.727ZM204.727 370.18H218.555V366.977H204.727V370.18ZM260.664 366.547V370.648H228.125V366.547H241.836V361.195H231.875V349.242H251.992V345.336H231.836V341.352H256.914V353.148H236.875V357.133H257.734V361.195H246.797V366.547H260.664ZM291.68 355.492V359.477H266.523V342.016H291.406V346.039H271.445V355.492H291.68ZM295.234 366.156V370.258H262.695V366.156H295.234ZM323.633 344.477V348.422H306.445V344.477H312.617V340.023H317.539V344.477H323.633ZM315.117 350.023C319.648 350.023 322.891 353.539 322.93 358.461C322.891 363.422 319.648 366.938 315.117 366.938C310.586 366.938 307.266 363.422 307.266 358.461C307.266 353.539 310.586 350.023 315.117 350.023ZM315.117 354.164C313.047 354.164 311.641 355.766 311.641 358.461C311.641 361.156 313.047 362.719 315.117 362.719C317.109 362.719 318.516 361.156 318.555 358.461C318.516 355.766 317.109 354.164 315.117 354.164ZM337.227 339.047V374.594H332.5V357.484H329.609V373.07H324.961V339.75H329.609V353.5H332.5V339.047H337.227ZM373.477 358.656V362.641H359.648V374.594H354.727V362.641H341.055V358.656H373.477ZM370.586 340.922V344.828H360.234C360.723 348.305 364.648 351.801 371.953 352.68L370.156 356.586C363.906 355.746 359.434 353.07 357.305 349.398C355.117 353.07 350.684 355.746 344.492 356.586L342.656 352.68C349.844 351.801 353.809 348.305 354.375 344.828H343.984V340.922H370.586ZM387.031 347.992C387.031 353.734 388.633 359.672 393.477 362.797L390.781 366.664C387.715 364.809 385.762 361.762 384.648 358.109C383.359 362.133 381.23 365.492 378.008 367.445L374.961 363.773C380.234 360.492 382.188 354.242 382.188 348.227V342.094H387.031V347.992ZM406.445 339.047V374.594H401.68V339.047H406.445ZM398.984 339.555V372.953H394.336V355.102H389.727V351.039H394.336V339.555H398.984ZM442.734 366.352V370.453H410.195V366.352H417.461V357.641C414.707 356 413.047 353.48 413.047 350.336C413.047 344.594 418.672 340.766 426.406 340.766C434.102 340.766 439.766 344.594 439.805 350.336C439.785 353.402 438.164 355.902 435.508 357.562V366.352H442.734ZM426.406 344.711C421.328 344.711 417.969 346.742 417.969 350.336C417.969 353.812 421.328 355.961 426.406 355.961C431.445 355.961 434.844 353.812 434.883 350.336C434.844 346.742 431.445 344.711 426.406 344.711ZM422.383 366.352H430.469V359.438C429.199 359.691 427.832 359.828 426.406 359.828C424.98 359.828 423.633 359.711 422.383 359.438V366.352ZM449.375 371.352C447.539 371.352 446.055 369.867 446.094 368.07C446.055 366.273 447.539 364.828 449.375 364.828C451.094 364.828 452.617 366.273 452.617 368.07C452.617 369.867 451.094 371.352 449.375 371.352Z" fill="#777777"/>
<g clip-path="url(#clip0_1368_3803)">
<path d="M309.333 151.333H305.1L286.9 127.733C284.554 124.715 281.553 122.27 278.122 120.584C274.692 118.897 270.923 118.014 267.1 118H234.9C231.077 118.014 227.308 118.897 223.878 120.584C220.447 122.27 217.446 124.715 215.1 127.733L196.9 151.333H192.667C181.62 151.347 171.03 155.741 163.218 163.552C155.407 171.363 151.013 181.953 151 193V276.333C151.013 287.38 155.407 297.97 163.218 305.782C171.03 313.593 181.62 317.987 192.667 318H309.333C320.38 317.987 330.97 313.593 338.782 305.782C346.593 297.97 350.987 287.38 351 276.333V193C350.987 181.953 346.593 171.363 338.782 163.552C330.97 155.741 320.38 151.347 309.333 151.333ZM228.3 137.917C229.081 136.909 230.081 136.092 231.224 135.529C232.368 134.966 233.625 134.671 234.9 134.667H267.1C268.375 134.672 269.631 134.968 270.775 135.531C271.918 136.094 272.919 136.91 273.7 137.917L284.05 151.333H217.95L228.3 137.917ZM334.333 276.333C334.333 282.964 331.699 289.323 327.011 294.011C322.323 298.699 315.964 301.333 309.333 301.333H192.667C186.036 301.333 179.677 298.699 174.989 294.011C170.301 289.323 167.667 282.964 167.667 276.333V193C167.667 186.37 170.301 180.011 174.989 175.322C179.677 170.634 186.036 168 192.667 168H309.333C315.964 168 322.323 170.634 327.011 175.322C331.699 180.011 334.333 186.37 334.333 193V276.333Z" fill="#777777"/>
<path d="M251 184.667C241.111 184.667 231.444 187.599 223.221 193.093C214.999 198.587 208.59 206.396 204.806 215.532C201.022 224.669 200.031 234.722 201.961 244.421C203.89 254.12 208.652 263.029 215.645 270.022C222.637 277.015 231.546 281.777 241.245 283.706C250.945 285.635 260.998 284.645 270.134 280.861C279.27 277.076 287.079 270.668 292.573 262.445C298.068 254.223 301 244.556 301 234.667C300.987 221.41 295.715 208.7 286.341 199.326C276.967 189.952 264.257 184.68 251 184.667ZM251 268C244.407 268 237.963 266.045 232.481 262.382C226.999 258.72 222.727 253.514 220.204 247.423C217.681 241.332 217.021 234.63 218.307 228.164C219.593 221.698 222.768 215.758 227.43 211.096C232.092 206.435 238.031 203.26 244.497 201.974C250.963 200.688 257.665 201.348 263.756 203.871C269.847 206.394 275.053 210.666 278.716 216.148C282.378 221.629 284.333 228.074 284.333 234.667C284.333 243.507 280.821 251.986 274.57 258.237C268.319 264.488 259.841 268 251 268Z" fill="#777777"/>
</g>
<defs>
<clipPath id="clip0_1368_3803">
<rect width="200" height="200" fill="white" transform="translate(151 118)"/>
</clipPath>
</defs>
</svg>
