<svg width="141" height="143" viewBox="0 0 141 143" fill="none" xmlns="http://www.w3.org/2000/svg">
<path d="M123.751 88.5C130.707 127.574 94.7918 142 65.2379 142C35.6839 142 -4.22501 125.079 4.224 88.5C11.4999 57 26.2939 33.5 65.2379 33.5C105 33.5 118.5 59 123.751 88.5Z" fill="#F2B57C"/>
<path d="M24.7284 9.05769C25.2494 8.03472 26.5333 7.67043 27.5174 8.26164C46.6897 19.7803 47.504 22.711 54.2596 37.298C54.6782 38.202 54.372 39.279 53.5373 39.8228L16.5377 63.9249C15.2689 64.7514 13.5783 63.9159 13.4756 62.4051C12.0975 42.1168 14.2726 29.5878 24.7284 9.05769Z" fill="#F2B57C"/>
<path d="M27.1138 16.6426C27.6218 15.5712 28.9641 15.1936 29.9639 15.8311C42.863 24.0572 43.6576 26.3588 48.3216 36.6604C48.7254 37.5524 48.4309 38.6134 47.6183 39.1597L22.9339 55.7528C21.6725 56.6007 19.9649 55.7841 19.8577 54.2679C18.8533 40.0615 20.3105 30.9892 27.1138 16.6426Z" fill="white"/>
<path d="M114.778 10.7155C115.786 10.4053 116.875 10.9325 117.212 11.9322C122.468 27.5353 121.687 46.7692 114.825 62.1157C114.313 63.2608 112.869 63.5967 111.87 62.8377L78.1758 37.2301C77.191 36.4817 77.1205 35.0231 78.0146 34.1684C92.6012 20.2249 92.2225 17.6544 114.778 10.7155Z" fill="#F2B57C"/>
<path d="M107.84 21.135C108.914 20.7283 110.118 21.3146 110.392 22.4299C112.875 32.5526 111.6 45.0391 106.81 55.4142C106.291 56.5386 104.866 56.8539 103.881 56.1031L84.0481 40.9857C83.0787 40.2468 82.9978 38.813 83.8596 37.9511C93.4301 28.3789 93.6785 26.4975 107.84 21.135Z" fill="white"/>
<circle cx="47.5" cy="84.5" r="2.5" fill="black"/>
<circle cx="82.5" cy="84.5" r="2.5" fill="black"/>
<path d="M124.5 91.5C127.5 111.5 115.266 142.875 65.5923 141.999C14.0623 141.09 -1.15296 109.607 3.50001 92.5C13.5216 94.4625 59.5029 97.7278 66.6072 82C73.204 98.3103 114.351 92.665 124.5 91.5Z" fill="white"/>
<path d="M88 94.4696C88 97.913 70.1257 94.4696 65.4313 94.4696C60.7369 94.4696 44 97.913 44 94.4696C44 91.0261 60.7369 82 65.4313 82C70.1257 82 88 91.0261 88 94.4696Z" fill="white"/>
<circle cx="65.5" cy="91.5" r="2.5" fill="black"/>
<line x1="65.5" y1="93" x2="65.5" y2="104" stroke="black"/>
<path d="M56.1433 103.699C55.8772 103.627 55.6016 103.785 55.5277 104.051C55.4538 104.318 55.6096 104.592 55.8757 104.664L56.1433 103.699ZM65.8903 103.75C63.9547 104.237 62.4752 104.478 61.0104 104.473C59.5464 104.469 58.0703 104.221 56.1433 103.699L55.8757 104.664C57.8491 105.199 59.4175 105.469 61.0005 105.473C62.5827 105.478 64.1528 105.217 66.128 104.72L65.8903 103.75Z" fill="black"/>
<path d="M75.128 104.72C75.3963 104.652 75.5605 104.38 75.4949 104.113C75.4292 103.845 75.1585 103.683 74.8903 103.75L75.128 104.72ZM74.8903 103.75C72.9547 104.237 71.4752 104.478 70.0104 104.473C68.5464 104.469 67.0703 104.221 65.1433 103.699L64.8757 104.664C66.8491 105.199 68.4175 105.469 70.0005 105.473C71.5827 105.478 73.1528 105.217 75.128 104.72L74.8903 103.75Z" fill="black"/>
<ellipse opacity="0.5" cx="91.5" cy="98" rx="6.5" ry="2" fill="#F2B57C"/>
<ellipse opacity="0.5" cx="38.5" cy="98" rx="6.5" ry="2" fill="#F2B57C"/>
</svg>
